<mxfile host="app.diagrams.net" agent="Mozilla/5.0 (Windows NT 10.0; Win64; x64) AppleWebKit/537.36 (KHTML, like Gecko) Chrome/134.0.0.0 Safari/537.36" version="26.1.1" pages="2">
  <diagram name="第 1 页" id="3YlkZfYE9rYywLvts0is">
    <mxGraphModel dx="1562" dy="810" grid="0" gridSize="10" guides="1" tooltips="1" connect="1" arrows="1" fold="1" page="1" pageScale="1" pageWidth="827" pageHeight="1169" math="0" shadow="0">
      <root>
        <mxCell id="0" />
        <mxCell id="1" parent="0" />
        <mxCell id="vwkhEPSho2x5Uqs2BSET-49" value="" style="rounded=0;whiteSpace=wrap;html=1;" vertex="1" parent="1">
          <mxGeometry x="155" y="318" width="196" height="303" as="geometry" />
        </mxCell>
        <mxCell id="vwkhEPSho2x5Uqs2BSET-29" value="开始" style="strokeWidth=2;html=1;shape=mxgraph.flowchart.start_1;whiteSpace=wrap;" vertex="1" parent="1">
          <mxGeometry x="362" y="128" width="80" height="50" as="geometry" />
        </mxCell>
        <mxCell id="vwkhEPSho2x5Uqs2BSET-43" value="" style="edgeStyle=orthogonalEdgeStyle;rounded=0;orthogonalLoop=1;jettySize=auto;html=1;" edge="1" parent="1" source="vwkhEPSho2x5Uqs2BSET-31" target="vwkhEPSho2x5Uqs2BSET-42">
          <mxGeometry relative="1" as="geometry" />
        </mxCell>
        <mxCell id="vwkhEPSho2x5Uqs2BSET-31" value="openHarmony_main()" style="rounded=1;whiteSpace=wrap;html=1;" vertex="1" parent="1">
          <mxGeometry x="342" y="196" width="120" height="40" as="geometry" />
        </mxCell>
        <mxCell id="vwkhEPSho2x5Uqs2BSET-32" value="" style="endArrow=classic;html=1;rounded=0;exitX=0.5;exitY=1;exitDx=0;exitDy=0;exitPerimeter=0;entryX=0.5;entryY=0;entryDx=0;entryDy=0;" edge="1" parent="1" source="vwkhEPSho2x5Uqs2BSET-29" target="vwkhEPSho2x5Uqs2BSET-31">
          <mxGeometry width="50" height="50" relative="1" as="geometry">
            <mxPoint x="392" y="429" as="sourcePoint" />
            <mxPoint x="442" y="379" as="targetPoint" />
          </mxGeometry>
        </mxCell>
        <mxCell id="vwkhEPSho2x5Uqs2BSET-33" value="" style="edgeStyle=orthogonalEdgeStyle;rounded=0;orthogonalLoop=1;jettySize=auto;html=1;exitX=0.5;exitY=1;exitDx=0;exitDy=0;" edge="1" parent="1" source="vwkhEPSho2x5Uqs2BSET-37" target="vwkhEPSho2x5Uqs2BSET-34">
          <mxGeometry relative="1" as="geometry">
            <mxPoint x="253" y="444.5" as="sourcePoint" />
          </mxGeometry>
        </mxCell>
        <mxCell id="vwkhEPSho2x5Uqs2BSET-39" value="" style="edgeStyle=orthogonalEdgeStyle;rounded=0;orthogonalLoop=1;jettySize=auto;html=1;" edge="1" parent="1" source="vwkhEPSho2x5Uqs2BSET-34" target="vwkhEPSho2x5Uqs2BSET-38">
          <mxGeometry relative="1" as="geometry" />
        </mxCell>
        <mxCell id="vwkhEPSho2x5Uqs2BSET-34" value="引擎初始化(Init)" style="rounded=1;whiteSpace=wrap;html=1;" vertex="1" parent="1">
          <mxGeometry x="193" y="377" width="120" height="40" as="geometry" />
        </mxCell>
        <mxCell id="vwkhEPSho2x5Uqs2BSET-35" value="结束" style="strokeWidth=2;html=1;shape=mxgraph.flowchart.start_1;whiteSpace=wrap;" vertex="1" parent="1">
          <mxGeometry x="213" y="637" width="80" height="50" as="geometry" />
        </mxCell>
        <mxCell id="vwkhEPSho2x5Uqs2BSET-37" value="&amp;nbsp;引擎预初始化(PreInit)" style="rounded=1;whiteSpace=wrap;html=1;" vertex="1" parent="1">
          <mxGeometry x="193" y="322.5" width="120" height="40" as="geometry" />
        </mxCell>
        <mxCell id="vwkhEPSho2x5Uqs2BSET-41" value="" style="edgeStyle=orthogonalEdgeStyle;rounded=0;orthogonalLoop=1;jettySize=auto;html=1;" edge="1" parent="1" source="vwkhEPSho2x5Uqs2BSET-38" target="vwkhEPSho2x5Uqs2BSET-40">
          <mxGeometry relative="1" as="geometry" />
        </mxCell>
        <mxCell id="vwkhEPSho2x5Uqs2BSET-38" value="主循环(Tick)" style="rounded=1;whiteSpace=wrap;html=1;" vertex="1" parent="1">
          <mxGeometry x="193" y="431" width="120" height="40" as="geometry" />
        </mxCell>
        <mxCell id="vwkhEPSho2x5Uqs2BSET-47" value="" style="edgeStyle=orthogonalEdgeStyle;rounded=0;orthogonalLoop=1;jettySize=auto;html=1;" edge="1" parent="1" source="vwkhEPSho2x5Uqs2BSET-40" target="vwkhEPSho2x5Uqs2BSET-46">
          <mxGeometry relative="1" as="geometry" />
        </mxCell>
        <mxCell id="vwkhEPSho2x5Uqs2BSET-40" value="轮询事件队列" style="rounded=1;whiteSpace=wrap;html=1;" vertex="1" parent="1">
          <mxGeometry x="193" y="493" width="120" height="40" as="geometry" />
        </mxCell>
        <mxCell id="vwkhEPSho2x5Uqs2BSET-42" value="创建线程" style="whiteSpace=wrap;html=1;rounded=1;" vertex="1" parent="1">
          <mxGeometry x="342" y="250" width="120" height="40" as="geometry" />
        </mxCell>
        <mxCell id="vwkhEPSho2x5Uqs2BSET-48" value="" style="edgeStyle=orthogonalEdgeStyle;rounded=0;orthogonalLoop=1;jettySize=auto;html=1;" edge="1" parent="1" source="vwkhEPSho2x5Uqs2BSET-46" target="vwkhEPSho2x5Uqs2BSET-35">
          <mxGeometry relative="1" as="geometry" />
        </mxCell>
        <mxCell id="vwkhEPSho2x5Uqs2BSET-46" value="Exit" style="whiteSpace=wrap;html=1;rounded=1;" vertex="1" parent="1">
          <mxGeometry x="193" y="554" width="120" height="40" as="geometry" />
        </mxCell>
        <mxCell id="vwkhEPSho2x5Uqs2BSET-50" value="" style="endArrow=classic;html=1;rounded=0;exitX=0.5;exitY=1;exitDx=0;exitDy=0;entryX=0.5;entryY=0;entryDx=0;entryDy=0;" edge="1" parent="1" source="vwkhEPSho2x5Uqs2BSET-42" target="vwkhEPSho2x5Uqs2BSET-49">
          <mxGeometry width="50" height="50" relative="1" as="geometry">
            <mxPoint x="387" y="504" as="sourcePoint" />
            <mxPoint x="437" y="454" as="targetPoint" />
          </mxGeometry>
        </mxCell>
        <mxCell id="vwkhEPSho2x5Uqs2BSET-51" value="主线程" style="text;strokeColor=none;fillColor=none;align=left;verticalAlign=middle;spacingLeft=4;spacingRight=4;overflow=hidden;points=[[0,0.5],[1,0.5]];portConstraint=eastwest;rotatable=0;whiteSpace=wrap;html=1;" vertex="1" parent="1">
          <mxGeometry x="158" y="594" width="80" height="30" as="geometry" />
        </mxCell>
        <mxCell id="vwkhEPSho2x5Uqs2BSET-52" value="" style="rounded=0;whiteSpace=wrap;html=1;" vertex="1" parent="1">
          <mxGeometry x="465" y="318" width="187" height="248" as="geometry" />
        </mxCell>
        <mxCell id="vwkhEPSho2x5Uqs2BSET-53" value="捕获系统事件" style="rounded=1;whiteSpace=wrap;html=1;" vertex="1" parent="1">
          <mxGeometry x="505" y="383" width="120" height="40" as="geometry" />
        </mxCell>
        <mxCell id="vwkhEPSho2x5Uqs2BSET-54" value="初始化事件线程" style="rounded=1;whiteSpace=wrap;html=1;" vertex="1" parent="1">
          <mxGeometry x="505" y="327" width="120" height="40" as="geometry" />
        </mxCell>
        <mxCell id="vwkhEPSho2x5Uqs2BSET-55" value="FAppEventManager处理" style="rounded=1;whiteSpace=wrap;html=1;" vertex="1" parent="1">
          <mxGeometry x="505" y="439" width="120" height="40" as="geometry" />
        </mxCell>
        <mxCell id="vwkhEPSho2x5Uqs2BSET-56" value="事件队列" style="rounded=1;whiteSpace=wrap;html=1;" vertex="1" parent="1">
          <mxGeometry x="505" y="493" width="120" height="40" as="geometry" />
        </mxCell>
        <mxCell id="vwkhEPSho2x5Uqs2BSET-57" value="事件线程" style="text;strokeColor=none;fillColor=none;align=left;verticalAlign=middle;spacingLeft=4;spacingRight=4;overflow=hidden;points=[[0,0.5],[1,0.5]];portConstraint=eastwest;rotatable=0;whiteSpace=wrap;html=1;" vertex="1" parent="1">
          <mxGeometry x="465" y="538" width="80" height="30" as="geometry" />
        </mxCell>
        <mxCell id="vwkhEPSho2x5Uqs2BSET-58" value="" style="endArrow=classic;html=1;rounded=0;exitX=0.5;exitY=1;exitDx=0;exitDy=0;entryX=0.5;entryY=0;entryDx=0;entryDy=0;" edge="1" parent="1" source="vwkhEPSho2x5Uqs2BSET-42" target="vwkhEPSho2x5Uqs2BSET-52">
          <mxGeometry width="50" height="50" relative="1" as="geometry">
            <mxPoint x="412" y="300" as="sourcePoint" />
            <mxPoint x="241" y="330" as="targetPoint" />
          </mxGeometry>
        </mxCell>
        <mxCell id="vwkhEPSho2x5Uqs2BSET-60" value="" style="endArrow=classic;html=1;rounded=0;exitX=0.5;exitY=1;exitDx=0;exitDy=0;entryX=0.5;entryY=0;entryDx=0;entryDy=0;" edge="1" parent="1" source="vwkhEPSho2x5Uqs2BSET-54" target="vwkhEPSho2x5Uqs2BSET-53">
          <mxGeometry width="50" height="50" relative="1" as="geometry">
            <mxPoint x="387" y="504" as="sourcePoint" />
            <mxPoint x="437" y="454" as="targetPoint" />
          </mxGeometry>
        </mxCell>
        <mxCell id="vwkhEPSho2x5Uqs2BSET-62" value="" style="endArrow=classic;html=1;rounded=0;exitX=0.5;exitY=1;exitDx=0;exitDy=0;entryX=0.5;entryY=0;entryDx=0;entryDy=0;" edge="1" parent="1" source="vwkhEPSho2x5Uqs2BSET-53" target="vwkhEPSho2x5Uqs2BSET-55">
          <mxGeometry width="50" height="50" relative="1" as="geometry">
            <mxPoint x="575" y="377" as="sourcePoint" />
            <mxPoint x="575" y="393" as="targetPoint" />
          </mxGeometry>
        </mxCell>
        <mxCell id="vwkhEPSho2x5Uqs2BSET-63" value="" style="endArrow=classic;html=1;rounded=0;exitX=0.5;exitY=1;exitDx=0;exitDy=0;" edge="1" parent="1" source="vwkhEPSho2x5Uqs2BSET-55">
          <mxGeometry width="50" height="50" relative="1" as="geometry">
            <mxPoint x="575" y="433" as="sourcePoint" />
            <mxPoint x="565" y="493" as="targetPoint" />
          </mxGeometry>
        </mxCell>
        <mxCell id="vwkhEPSho2x5Uqs2BSET-64" value="" style="edgeStyle=elbowEdgeStyle;elbow=vertical;endArrow=classic;html=1;curved=0;rounded=0;endSize=8;startSize=8;exitX=0;exitY=0.5;exitDx=0;exitDy=0;entryX=0;entryY=0.5;entryDx=0;entryDy=0;" edge="1" parent="1" source="vwkhEPSho2x5Uqs2BSET-40" target="vwkhEPSho2x5Uqs2BSET-38">
          <mxGeometry width="50" height="50" relative="1" as="geometry">
            <mxPoint x="486" y="538" as="sourcePoint" />
            <mxPoint x="536" y="488" as="targetPoint" />
            <Array as="points">
              <mxPoint x="166" y="483" />
            </Array>
          </mxGeometry>
        </mxCell>
        <mxCell id="vwkhEPSho2x5Uqs2BSET-65" value="" style="endArrow=classic;html=1;rounded=0;exitX=0;exitY=0.5;exitDx=0;exitDy=0;entryX=1;entryY=0.5;entryDx=0;entryDy=0;" edge="1" parent="1" source="vwkhEPSho2x5Uqs2BSET-56" target="vwkhEPSho2x5Uqs2BSET-40">
          <mxGeometry width="50" height="50" relative="1" as="geometry">
            <mxPoint x="464" y="540" as="sourcePoint" />
            <mxPoint x="514" y="490" as="targetPoint" />
          </mxGeometry>
        </mxCell>
      </root>
    </mxGraphModel>
  </diagram>
  <diagram id="-K7BujS1e0HoIudlf5Lb" name="第 2 页">
    <mxGraphModel grid="0" page="1" gridSize="10" guides="1" tooltips="1" connect="1" arrows="1" fold="1" pageScale="1" pageWidth="827" pageHeight="1169" math="0" shadow="0">
      <root>
        <mxCell id="0" />
        <mxCell id="1" parent="0" />
      </root>
    </mxGraphModel>
  </diagram>
</mxfile>
